<?xml version="1.0" encoding="UTF-8"?>
<svg xmlns="http://www.w3.org/2000/svg" xmlns:xlink="http://www.w3.org/1999/xlink" width="300" height="200" viewBox="0 0 300 200">
<path fill="none" stroke-width="1" stroke-linecap="butt" stroke-linejoin="miter" stroke="rgb(0%, 0%, 0%)" stroke-opacity="1" stroke-miterlimit="10" d="M 80 136.667969 L 160 20 L 230 135 "/>
<path fill-rule="nonzero" fill="rgb(0%, 50.196078%, 0%)" fill-opacity="1" d="M 80 136.667969 L 160 20 L 230 135 Z M 80 136.667969 "/>
<path fill-rule="nonzero" fill="rgb(0%, 0%, 100%)" fill-opacity="1" d="M 120.460938 187.347656 C 118.640625 187.347656 116.921875 187.148438 115.304688 186.753906 C 113.683594 186.359375 112.347656 185.902344 111.296875 185.371094 L 111.296875 178.867188 L 111.933594 178.867188 C 112.300781 179.148438 112.71875 179.457031 113.1875 179.792969 C 113.65625 180.132812 114.304688 180.480469 115.140625 180.84375 C 115.855469 181.183594 116.667969 181.476562 117.570312 181.714844 C 118.46875 181.957031 119.445312 182.074219 120.503906 182.074219 C 121.585938 182.074219 122.542969 181.90625 123.371094 181.570312 C 124.199219 181.234375 124.613281 180.699219 124.613281 179.964844 C 124.613281 179.394531 124.421875 178.964844 124.039062 178.671875 C 123.65625 178.378906 122.914062 178.101562 121.820312 177.835938 C 121.230469 177.691406 120.492188 177.53125 119.601562 177.363281 C 118.707031 177.195312 117.917969 177.003906 117.230469 176.78125 C 115.292969 176.183594 113.835938 175.292969 112.867188 174.109375 C 111.890625 172.933594 111.40625 171.382812 111.40625 169.464844 C 111.40625 168.367188 111.65625 167.332031 112.164062 166.355469 C 112.664062 165.382812 113.410156 164.515625 114.394531 163.75 C 115.375 163.007812 116.585938 162.414062 118.03125 161.972656 C 119.472656 161.535156 121.101562 161.316406 122.921875 161.3125 C 124.644531 161.316406 126.234375 161.488281 127.6875 161.828125 C 129.136719 162.175781 130.359375 162.589844 131.359375 163.070312 L 131.359375 169.308594 L 130.742188 169.308594 C 130.476562 169.109375 130.058594 168.835938 129.488281 168.488281 C 128.917969 168.144531 128.359375 167.847656 127.820312 167.597656 C 127.171875 167.304688 126.449219 167.0625 125.652344 166.871094 C 124.851562 166.683594 124.039062 166.589844 123.207031 166.585938 C 122.089844 166.589844 121.144531 166.777344 120.378906 167.15625 C 119.605469 167.539062 119.222656 168.046875 119.226562 168.671875 C 119.222656 169.234375 119.414062 169.671875 119.796875 169.992188 C 120.179688 170.3125 121.007812 170.628906 122.28125 170.933594 C 122.941406 171.097656 123.699219 171.253906 124.558594 171.40625 C 125.414062 171.5625 126.238281 171.773438 127.027344 172.035156 C 128.800781 172.609375 130.144531 173.445312 131.058594 174.550781 C 131.972656 175.65625 132.429688 177.125 132.433594 178.957031 C 132.429688 180.113281 132.160156 181.214844 131.621094 182.261719 C 131.078125 183.308594 130.308594 184.191406 129.3125 184.910156 C 128.257812 185.6875 127.015625 186.285156 125.585938 186.710938 C 124.15625 187.132812 122.445312 187.347656 120.460938 187.347656 Z M 150.847656 178.890625 L 150.847656 167.707031 C 150.464844 167.53125 149.996094 167.386719 149.441406 167.265625 C 148.882812 167.152344 148.328125 167.09375 147.773438 167.089844 C 145.925781 167.09375 144.535156 167.691406 143.609375 168.882812 C 142.675781 170.078125 142.210938 171.742188 142.214844 173.878906 C 142.210938 174.953125 142.28125 175.859375 142.421875 176.59375 C 142.558594 177.335938 142.820312 177.988281 143.203125 178.558594 C 143.566406 179.117188 144.042969 179.539062 144.640625 179.824219 C 145.230469 180.113281 145.988281 180.257812 146.914062 180.253906 C 147.601562 180.257812 148.28125 180.140625 148.949219 179.902344 C 149.613281 179.671875 150.246094 179.335938 150.847656 178.890625 Z M 158.539062 183.832031 C 158.535156 186.117188 158.207031 188.058594 157.550781 189.65625 C 156.890625 191.25 155.988281 192.492188 154.847656 193.390625 C 153.699219 194.296875 152.332031 194.953125 150.738281 195.355469 C 149.140625 195.757812 147.367188 195.960938 145.421875 195.960938 C 143.777344 195.960938 142.21875 195.851562 140.75 195.640625 C 139.273438 195.425781 137.996094 195.183594 136.917969 194.90625 L 136.917969 188.734375 L 137.816406 188.734375 C 138.195312 188.878906 138.644531 189.039062 139.167969 189.214844 C 139.683594 189.390625 140.210938 189.550781 140.742188 189.699219 C 141.367188 189.855469 141.980469 189.988281 142.585938 190.09375 C 143.183594 190.195312 143.800781 190.246094 144.433594 190.25 C 145.734375 190.246094 146.820312 190.113281 147.695312 189.84375 C 148.566406 189.570312 149.222656 189.183594 149.660156 188.691406 C 150.097656 188.175781 150.402344 187.570312 150.582031 186.875 C 150.753906 186.179688 150.84375 185.308594 150.847656 184.25 L 150.847656 183.789062 C 149.980469 184.554688 148.980469 185.164062 147.847656 185.625 C 146.710938 186.085938 145.542969 186.316406 144.34375 186.316406 C 141.148438 186.316406 138.683594 185.277344 136.949219 183.195312 C 135.210938 181.117188 134.34375 177.953125 134.347656 173.703125 C 134.34375 171.773438 134.609375 170.039062 135.148438 168.5 C 135.679688 166.964844 136.425781 165.652344 137.378906 164.5625 C 138.285156 163.527344 139.382812 162.726562 140.675781 162.160156 C 141.960938 161.597656 143.300781 161.316406 144.695312 161.3125 C 145.953125 161.316406 147.082031 161.476562 148.078125 161.796875 C 149.074219 162.121094 149.980469 162.550781 150.804688 163.089844 L 151.089844 161.992188 L 158.539062 161.992188 Z M 179.171875 178.890625 L 179.171875 167.707031 C 178.789062 167.53125 178.320312 167.386719 177.765625 167.265625 C 177.207031 167.152344 176.652344 167.09375 176.097656 167.089844 C 174.25 167.09375 172.859375 167.691406 171.933594 168.882812 C 171 170.078125 170.535156 171.742188 170.539062 173.878906 C 170.535156 174.953125 170.605469 175.859375 170.746094 176.59375 C 170.882812 177.335938 171.144531 177.988281 171.527344 178.558594 C 171.890625 179.117188 172.367188 179.539062 172.964844 179.824219 C 173.554688 180.113281 174.3125 180.257812 175.238281 180.253906 C 175.925781 180.257812 176.605469 180.140625 177.273438 179.902344 C 177.9375 179.671875 178.570312 179.335938 179.171875 178.890625 Z M 186.863281 183.832031 C 186.859375 186.117188 186.53125 188.058594 185.875 189.65625 C 185.214844 191.25 184.3125 192.492188 183.171875 193.390625 C 182.023438 194.296875 180.65625 194.953125 179.0625 195.355469 C 177.464844 195.757812 175.691406 195.960938 173.746094 195.960938 C 172.101562 195.960938 170.542969 195.851562 169.074219 195.640625 C 167.597656 195.425781 166.320312 195.183594 165.242188 194.90625 L 165.242188 188.734375 L 166.140625 188.734375 C 166.519531 188.878906 166.96875 189.039062 167.492188 189.214844 C 168.007812 189.390625 168.535156 189.550781 169.066406 189.699219 C 169.691406 189.855469 170.304688 189.988281 170.910156 190.09375 C 171.507812 190.195312 172.125 190.246094 172.757812 190.25 C 174.058594 190.246094 175.144531 190.113281 176.019531 189.84375 C 176.890625 189.570312 177.546875 189.183594 177.984375 188.691406 C 178.421875 188.175781 178.726562 187.570312 178.90625 186.875 C 179.078125 186.179688 179.167969 185.308594 179.171875 184.25 L 179.171875 183.789062 C 178.304688 184.554688 177.304688 185.164062 176.171875 185.625 C 175.035156 186.085938 173.867188 186.316406 172.667969 186.316406 C 169.472656 186.316406 167.007812 185.277344 165.273438 183.195312 C 163.535156 181.117188 162.667969 177.953125 162.671875 173.703125 C 162.667969 171.773438 162.933594 170.039062 163.472656 168.5 C 164.003906 166.964844 164.75 165.652344 165.703125 164.5625 C 166.609375 163.527344 167.707031 162.726562 169 162.160156 C 170.285156 161.597656 171.625 161.316406 173.019531 161.3125 C 174.277344 161.316406 175.40625 161.476562 176.402344 161.796875 C 177.398438 162.121094 178.304688 162.550781 179.128906 163.089844 L 179.414062 161.992188 L 186.863281 161.992188 Z M 110 141.644531 "/>
</svg>
