<?xml version="1.0" encoding="UTF-8"?>
<svg xmlns="http://www.w3.org/2000/svg" xmlns:xlink="http://www.w3.org/1999/xlink" width="300" height="200" viewBox="0 0 300 200">
<path fill="none" stroke-width="1" stroke-linecap="butt" stroke-linejoin="miter" stroke="rgb(0%, 0%, 0%)" stroke-opacity="1" stroke-miterlimit="10" d="M 80 136.667969 L 160 20 L 230 135 "/>
<path fill-rule="nonzero" fill="rgb(0%, 0%, 100%)" fill-opacity="1" d="M 80 136.667969 L 160 20 L 230 135 Z M 80 136.667969 "/>
<path fill-rule="nonzero" fill="rgb(100%, 0%, 0%)" fill-opacity="1" d="M 121.460938 187.347656 C 119.640625 187.347656 117.921875 187.148438 116.304688 186.753906 C 114.683594 186.359375 113.347656 185.902344 112.296875 185.371094 L 112.296875 178.867188 L 112.933594 178.867188 C 113.300781 179.148438 113.71875 179.457031 114.1875 179.792969 C 114.65625 180.132812 115.304688 180.480469 116.140625 180.84375 C 116.855469 181.183594 117.667969 181.476562 118.570312 181.714844 C 119.46875 181.957031 120.445312 182.074219 121.503906 182.074219 C 122.585938 182.074219 123.542969 181.90625 124.371094 181.570312 C 125.199219 181.234375 125.613281 180.699219 125.613281 179.964844 C 125.613281 179.394531 125.421875 178.964844 125.039062 178.671875 C 124.65625 178.378906 123.914062 178.101562 122.820312 177.835938 C 122.230469 177.691406 121.492188 177.53125 120.601562 177.363281 C 119.707031 177.195312 118.917969 177.003906 118.230469 176.78125 C 116.292969 176.183594 114.835938 175.292969 113.867188 174.109375 C 112.890625 172.933594 112.40625 171.382812 112.40625 169.464844 C 112.40625 168.367188 112.65625 167.332031 113.164062 166.355469 C 113.664062 165.382812 114.410156 164.515625 115.394531 163.75 C 116.375 163.007812 117.585938 162.414062 119.03125 161.972656 C 120.472656 161.535156 122.101562 161.316406 123.921875 161.3125 C 125.644531 161.316406 127.234375 161.488281 128.6875 161.828125 C 130.136719 162.175781 131.359375 162.589844 132.359375 163.070312 L 132.359375 169.308594 L 131.742188 169.308594 C 131.476562 169.109375 131.058594 168.835938 130.488281 168.488281 C 129.917969 168.144531 129.359375 167.847656 128.820312 167.597656 C 128.171875 167.304688 127.449219 167.0625 126.652344 166.871094 C 125.851562 166.683594 125.039062 166.589844 124.207031 166.585938 C 123.089844 166.589844 122.144531 166.777344 121.378906 167.15625 C 120.605469 167.539062 120.222656 168.046875 120.226562 168.671875 C 120.222656 169.234375 120.414062 169.671875 120.796875 169.992188 C 121.179688 170.3125 122.007812 170.628906 123.28125 170.933594 C 123.941406 171.097656 124.699219 171.253906 125.558594 171.40625 C 126.414062 171.5625 127.238281 171.773438 128.027344 172.035156 C 129.800781 172.609375 131.144531 173.445312 132.058594 174.550781 C 132.972656 175.65625 133.429688 177.125 133.433594 178.957031 C 133.429688 180.113281 133.160156 181.214844 132.621094 182.261719 C 132.078125 183.308594 131.308594 184.191406 130.3125 184.910156 C 129.257812 185.6875 128.015625 186.285156 126.585938 186.710938 C 125.15625 187.132812 123.445312 187.347656 121.460938 187.347656 Z M 160.21875 186.667969 L 152.484375 186.667969 L 152.484375 174.429688 C 152.480469 173.433594 152.441406 172.441406 152.363281 171.453125 C 152.28125 170.464844 152.132812 169.734375 151.914062 169.265625 C 151.648438 168.710938 151.265625 168.3125 150.769531 168.070312 C 150.269531 167.828125 149.605469 167.707031 148.773438 167.707031 C 148.140625 167.707031 147.5 167.824219 146.859375 168.058594 C 146.210938 168.292969 145.523438 168.667969 144.792969 169.175781 L 144.792969 186.667969 L 137.105469 186.667969 L 137.105469 152.480469 L 144.792969 152.480469 L 144.792969 164.71875 C 146.050781 163.648438 147.277344 162.816406 148.472656 162.214844 C 149.664062 161.617188 150.988281 161.316406 152.441406 161.3125 C 154.960938 161.316406 156.886719 162.109375 158.21875 163.695312 C 159.550781 165.285156 160.214844 167.589844 160.21875 170.605469 Z M 179.511719 180.230469 L 179.511719 175.089844 C 178.207031 175.222656 177.148438 175.335938 176.34375 175.429688 C 175.535156 175.523438 174.746094 175.710938 173.972656 175.988281 C 173.296875 176.226562 172.773438 176.582031 172.398438 177.054688 C 172.023438 177.535156 171.835938 178.167969 171.839844 178.957031 C 171.835938 180.113281 172.148438 180.910156 172.773438 181.339844 C 173.398438 181.777344 174.316406 181.992188 175.535156 181.988281 C 176.203125 181.992188 176.890625 181.839844 177.597656 181.527344 C 178.296875 181.222656 178.9375 180.789062 179.511719 180.230469 Z M 179.511719 184.054688 C 178.980469 184.492188 178.503906 184.886719 178.089844 185.238281 C 177.667969 185.589844 177.109375 185.941406 176.410156 186.292969 C 175.71875 186.628906 175.050781 186.882812 174.402344 187.0625 C 173.75 187.234375 172.835938 187.324219 171.667969 187.328125 C 169.480469 187.324219 167.667969 186.59375 166.226562 185.132812 C 164.78125 183.667969 164.058594 181.824219 164.0625 179.59375 C 164.058594 177.765625 164.425781 176.285156 165.160156 175.15625 C 165.890625 174.027344 166.945312 173.132812 168.324219 172.472656 C 169.714844 171.804688 171.378906 171.335938 173.3125 171.070312 C 175.246094 170.804688 177.324219 170.601562 179.554688 170.453125 L 179.554688 170.320312 C 179.550781 168.960938 179.050781 168.019531 178.046875 167.496094 C 177.042969 166.976562 175.539062 166.71875 173.535156 166.714844 C 172.625 166.71875 171.5625 166.882812 170.347656 167.210938 C 169.128906 167.542969 167.941406 167.964844 166.789062 168.472656 L 166.128906 168.472656 L 166.128906 162.519531 C 166.886719 162.304688 168.117188 162.042969 169.820312 161.742188 C 171.519531 161.441406 173.230469 161.292969 174.960938 161.289062 C 179.203125 161.292969 182.296875 162 184.242188 163.410156 C 186.179688 164.828125 187.152344 166.984375 187.15625 169.878906 L 187.15625 186.667969 L 179.511719 186.667969 Z M 111 141.644531 "/>
</svg>
